<svg fill="#000000" width="144" height="158" viewBox="0 0 13 7" id="image" data-name="Flat Color" xmlns="http://www.w3.org/2000/svg" class="icon flat-color" version="1.1" xmlns:xlink="http://www.w3.org/1999/xlink" transform="rotate(-30)"><path id="primary" x="2" y="3" width="20" height="18" rx="2" style="fill: rgb(0, 0, 0);" d="M1.5 1.125H7.5A0.75 0.75 0 0 1 8.25 1.875V7.125A0.75 0.75 0 0 1 7.5 7.875H1.5A0.75 0.75 0 0 1 0.75 7.125V1.875A0.75 0.75 0 0 1 1.5 1.125z"></path><path id="secondary" d="m8.033 7.125 -2.516 -2.516a0.375 0.375 0 0 0 -0.532 0L4.125 5.471l-0.484 -0.488a0.375 0.375 0 0 0 -0.532 0L0.968 7.125a0.375 0.375 0 0 0 -0.109 0.27 0.375 0.375 0 0 0 0.116 0.27A0.75 0.75 0 0 0 1.5 7.875h6a0.75 0.75 0 0 0 0.525 -0.21 0.375 0.375 0 0 0 0.116 -0.27 0.375 0.375 0 0 0 -0.109 -0.27Z" style="fill: rgb(44, 169, 188);"></path><path id="secondary-2" data-name="secondary" cx="11" cy="9" r="1.5" style="fill: rgb(44, 169, 188);" d="M4.688 3.375A0.563 0.563 0 0 1 4.125 3.938A0.563 0.563 0 0 1 3.563 3.375A0.563 0.563 0 0 1 4.688 3.375z"></path></svg>